# xmcd
#
# Track frame offsets:
#	182
#	13867
#	21432
#	28950
#	41905
#	62125
#	79292
#	93827
#	108690
#	126957
#	140665
#	153882
#
# Disc length: 2299 seconds
#
# Revision: 1
# Processed by: cddbd v1.5.1PL2 Copyright (c) Steve Scherf et al.
# Submitted via: audiograbber 1.83.01
#
DISCID=aa08f90c
DTITLE=Charlie Rich and Guests - Behind Closed Doors
DYEAR=1991
DGENRE=Country
TTITLE0=Charlie Rich - Behind Closed Doors
TTITLE1=Johnny Tillotson - Heartaches By The Number
TTITLE2=Johnny Tillotson - Send Me The Pillow
TTITLE3=Johnny Tillotson - Its Keeps Right On Hurting
TTITLE4=Charlie Rich - Big Boss Man
TTITLE5=Mel Tillis - Rose Of El Paso
TTITLE6=Mel Tillis - Ruby Don't Take Your Love to Twon
TTITLE7=Hoyt Axton - Evangelina
TTITLE8=Hoyt Axton - Wild Bull Rider
TTITLE9=Hoyt Axton - Joy To The World
TTITLE10=Johnny Rodriguez - Desperado
TTITLE11=Charlie Rich - Lets Take It Nice And Easy
EXTD=
EXTT0=
EXTT1=
EXTT2=
EXTT3=
EXTT4=
EXTT5=
EXTT6=
EXTT7=
EXTT8=
EXTT9=
EXTT10=
EXTT11=
PLAYORDER=
